<?xml version="1.0" encoding="UTF-8" standalone="no"?>
<svg xmlns:xlink="http://www.w3.org/1999/xlink" xmlns="http://www.w3.org/2000/svg" viewBox="0 0 500 291.6640765835768" preserveAspectRatio="xMaxYMax slice"><g transform="scale(0.6216199415677255)"><rect x="0" y="0" width="871.3714285714287" height="469.20000000000005" fill="#ffffff"/><rect x="0" y="0" width="67.03" height="67.03" fill="#183FE1"/><rect x="0" y="0" width="67.03" height="67.03" fill="#183FE1"/><rect x="67.02857142857144" y="0" width="67.02857142857144" height="67.02857142857144" fill="#ffffff"/><rect x="67.03" y="0" width="33.51" height="33.51" fill="#183FE1"/><path d="M 67.03 0 A 33.51 33.51 0 0 0 100.53999999999999 33.51 L 100.53999999999999 0" fill="#183FE1"/><rect x="100.54" y="0" width="33.51" height="33.51" fill="#FF3565"/><path d="M 100.54 33.51 A 33.51 33.51 0 0 0 134.05 0 L 100.54 0" fill="#183FE1"/><rect x="67.03" y="33.51" width="33.51" height="33.51" fill="#FF3565"/><path d="M 67.03 67.02 A 33.51 33.51 0 0 1  100.53999999999999 33.51 L 100.53999999999999 67.02" fill="#FF3565"/><rect x="100.54" y="33.51" width="33.51" height="33.51" fill="#FF3565"/><path d="M 100.54 33.51 A 33.51 33.51 0 0 1 134.05 67.02 L 100.54 67.02" fill="#183FE1"/><rect x="134.05714285714288" y="0" width="67.02857142857144" height="67.02857142857144" fill="#ffffff"/><rect x="134.06" y="0" width="33.51" height="33.51" fill="#183FE1"/><path d="M 134.06 0 A 33.51 33.51 0 0 0 167.57 33.51 L 167.57 0" fill="#183FE1"/><rect x="167.57" y="0" width="33.51" height="33.51" fill="#FF3565"/><path d="M 167.57 33.51 A 33.51 33.51 0 0 0 201.07999999999998 0 L 167.57 0" fill="#FF3565"/><rect x="134.06" y="33.51" width="33.51" height="33.51" fill="#183FE1"/><path d="M 134.06 67.02 A 33.51 33.51 0 0 1  167.57 33.51 L 167.57 67.02" fill="#FF3565"/><rect x="167.57" y="33.51" width="33.51" height="33.51" fill="#FF3565"/><path d="M 167.57 33.51 A 33.51 33.51 0 0 1 201.07999999999998 67.02 L 167.57 67.02" fill="#183FE1"/><rect x="201.08571428571432" y="0" width="67.02857142857144" height="67.02857142857144" fill="#ffffff"/><rect x="201.09" y="0" width="33.51" height="33.51" fill="#183FE1"/><polygon points="234.6,0 234.6,33.51 201.09,33.51" fill="#FF3565"/><rect x="234.6" y="0" width="33.51" height="33.51" fill="#183FE1"/><polygon points="234.6,0 268.11,0 234.6,33.51" fill="#183FE1"/><rect x="201.09" y="33.51" width="33.51" height="33.51" fill="#FF3565"/><polygon points="201.09,33.51 234.6,33.51 234.6,67.02" fill="#183FE1"/><rect x="234.6" y="33.51" width="33.51" height="33.51" fill="#183FE1"/><polygon points="234.6,33.51 268.11,67.02 234.6,67.02" fill="#183FE1"/><rect x="268.11428571428576" y="0" width="67.02857142857144" height="67.02857142857144" fill="#ffffff"/><rect x="268.11" y="0" width="33.51" height="33.51" fill="#183FE1"/><circle cx="284.865" cy="16.755" r="16.755" fill="#183FE1"/><rect x="301.63" y="0" width="33.51" height="33.51" fill="#183FE1"/><rect x="301.63" y="0" width="33.51" height="33.51" fill="#183FE1"/><rect x="268.11" y="33.51" width="33.51" height="33.51" fill="#FF3565"/><circle cx="284.865" cy="50.265" r="16.755" fill="#FF3565"/><rect x="301.63" y="33.51" width="33.51" height="33.51" fill="#183FE1"/><rect x="301.63" y="33.51" width="33.51" height="33.51" fill="#FF3565"/><rect x="335.14" y="0" width="67.03" height="67.03" fill="#183FE1"/><rect x="335.14" y="0" width="67.03" height="67.03" fill="#183FE1"/><rect x="402.17142857142863" y="0" width="67.02857142857144" height="67.02857142857144" fill="#ffffff"/><rect x="402.17" y="0" width="33.51" height="33.51" fill="#FF3565"/><path d="M 402.17 33.51 A 33.51 33.51 0 0 0 435.68 0 L 402.17 0" fill="#FF3565"/><rect x="435.69" y="0" width="33.51" height="33.51" fill="#FF3565"/><path d="M 435.69 0 A 33.51 33.51 0 0 0 469.2 33.51 L 469.2 0" fill="#183FE1"/><rect x="402.17" y="33.51" width="33.51" height="33.51" fill="#FF3565"/><path d="M 402.17 33.51 A 33.51 33.51 0 0 1 435.68 67.02 L 402.17 67.02" fill="#FF3565"/><rect x="435.69" y="33.51" width="33.51" height="33.51" fill="#FF3565"/><path d="M 435.69 67.02 A 33.51 33.51 0 0 1  469.2 33.51 L 469.2 67.02" fill="#183FE1"/><rect x="469.2" y="0" width="67.03" height="67.03" fill="#FF3565"/><path d="M 469.2 0 A 67.03 67.03 0 0 1 536.23 67.03 L 469.2 67.03" fill="#FF3565"/><rect x="536.23" y="0" width="67.03" height="67.03" fill="#183FE1"/><rect x="536.23" y="0" width="67.03" height="67.03" fill="#183FE1"/><rect x="603.257142857143" y="0" width="67.02857142857144" height="67.02857142857144" fill="#ffffff"/><rect x="603.26" y="0" width="33.51" height="33.51" fill="#183FE1"/><path d="M 603.26 0 A 33.51 33.51 0 0 0 636.77 33.51 L 636.77 0" fill="#183FE1"/><rect x="636.77" y="0" width="33.51" height="33.51" fill="#FF3565"/><path d="M 636.77 33.51 A 33.51 33.51 0 0 0 670.28 0 L 636.77 0" fill="#FF3565"/><rect x="603.26" y="33.51" width="33.51" height="33.51" fill="#FF3565"/><path d="M 603.26 67.02 A 33.51 33.51 0 0 1  636.77 33.51 L 636.77 67.02" fill="#183FE1"/><rect x="636.77" y="33.51" width="33.51" height="33.51" fill="#183FE1"/><path d="M 636.77 33.51 A 33.51 33.51 0 0 1 670.28 67.02 L 636.77 67.02" fill="#FF3565"/><rect x="670.29" y="0" width="67.03" height="67.03" fill="#FF3565"/><polygon points="670.29,0 737.3199999999999,67.03 670.29,67.03" fill="#183FE1"/><rect x="737.3142857142858" y="0" width="67.02857142857144" height="67.02857142857144" fill="#ffffff"/><rect x="737.31" y="0" width="33.51" height="33.51" fill="#183FE1"/><path d="M 737.31 33.51 A 33.51 33.51 0 0 1  770.8199999999999 0 L 770.8199999999999 33.51" fill="#183FE1"/><rect x="770.83" y="0" width="33.51" height="33.51" fill="#FF3565"/><path d="M 770.83 0 A 33.51 33.51 0 0 1 804.34 33.51 L 770.83 33.51" fill="#FF3565"/><rect x="737.31" y="33.51" width="33.51" height="33.51" fill="#FF3565"/><path d="M 737.31 33.51 A 33.51 33.51 0 0 0 770.8199999999999 67.02 L 770.8199999999999 33.51" fill="#FF3565"/><rect x="770.83" y="33.51" width="33.51" height="33.51" fill="#183FE1"/><path d="M 770.83 67.02 A 33.51 33.51 0 0 0 804.34 33.51 L 770.83 33.51" fill="#183FE1"/><rect x="804.34" y="0" width="67.03" height="67.03" fill="#183FE1"/><rect x="804.34" y="0" width="67.03" height="67.03" fill="#FF3565"/><rect x="0" y="67.03" width="67.03" height="67.03" fill="#183FE1"/><polygon points="0,67.03 67.03,134.06 0,134.06" fill="#183FE1"/><rect x="67.03" y="67.03" width="67.03" height="67.03" fill="#FF3565"/><polygon points="67.03,67.03 134.06,134.06 67.03,134.06" fill="#183FE1"/><rect x="134.05714285714288" y="67.02857142857144" width="67.02857142857144" height="67.02857142857144" fill="#ffffff"/><rect x="134.06" y="67.03" width="33.51" height="33.51" fill="#183FE1"/><path d="M 134.06 67.03 A 33.51 33.51 0 0 1 167.57 100.53999999999999 L 134.06 100.53999999999999" fill="#FF3565"/><rect x="167.57" y="67.03" width="33.51" height="33.51" fill="#183FE1"/><path d="M 167.57 100.53999999999999 A 33.51 33.51 0 0 1  201.07999999999998 67.03 L 201.07999999999998 100.53999999999999" fill="#FF3565"/><rect x="134.06" y="100.54" width="33.51" height="33.51" fill="#FF3565"/><path d="M 134.06 134.05 A 33.51 33.51 0 0 0 167.57 100.54 L 134.06 100.54" fill="#183FE1"/><rect x="167.57" y="100.54" width="33.51" height="33.51" fill="#FF3565"/><path d="M 167.57 100.54 A 33.51 33.51 0 0 0 201.07999999999998 134.05 L 201.07999999999998 100.54" fill="#FF3565"/><rect x="201.08571428571432" y="67.02857142857144" width="67.02857142857144" height="67.02857142857144" fill="#ffffff"/><rect x="201.09" y="67.03" width="33.51" height="33.51" fill="#FF3565"/><path d="M 201.09 100.53999999999999 A 33.51 33.51 0 0 1  234.6 67.03 L 234.6 100.53999999999999" fill="#183FE1"/><rect x="234.6" y="67.03" width="33.51" height="33.51" fill="#FF3565"/><path d="M 234.6 67.03 A 33.51 33.51 0 0 1 268.11 100.53999999999999 L 234.6 100.53999999999999" fill="#FF3565"/><rect x="201.09" y="100.54" width="33.51" height="33.51" fill="#FF3565"/><path d="M 201.09 100.54 A 33.51 33.51 0 0 0 234.6 134.05 L 234.6 100.54" fill="#FF3565"/><rect x="234.6" y="100.54" width="33.51" height="33.51" fill="#183FE1"/><path d="M 234.6 134.05 A 33.51 33.51 0 0 0 268.11 100.54 L 234.6 100.54" fill="#183FE1"/><rect x="268.11" y="67.03" width="67.03" height="67.03" fill="#FF3565"/><rect x="268.11" y="67.03" width="67.03" height="67.03" fill="#183FE1"/><rect x="335.14" y="67.03" width="67.03" height="67.03" fill="#183FE1"/><path d="M 335.14 67.03 A 67.03 67.03 0 0 1  402.16999999999996 134.06 L 335.14 67.03 A 67.03 67.03 0 0 0 402.16999999999996 134.06" fill="#183FE1"/><rect x="402.17142857142863" y="67.02857142857144" width="67.02857142857144" height="67.02857142857144" fill="#ffffff"/><rect x="402.17" y="67.03" width="33.51" height="33.51" fill="#183FE1"/><circle cx="418.925" cy="83.785" r="16.755" fill="#FF3565"/><rect x="435.69" y="67.03" width="33.51" height="33.51" fill="#FF3565"/><rect x="435.69" y="67.03" width="33.51" height="33.51" fill="#183FE1"/><rect x="402.17" y="100.54" width="33.51" height="33.51" fill="#183FE1"/><circle cx="418.925" cy="117.295" r="16.755" fill="#183FE1"/><rect x="435.69" y="100.54" width="33.51" height="33.51" fill="#183FE1"/><rect x="435.69" y="100.54" width="33.51" height="33.51" fill="#FF3565"/><rect x="469.20000000000005" y="67.02857142857144" width="67.02857142857144" height="67.02857142857144" fill="#ffffff"/><rect x="469.2" y="67.03" width="33.51" height="33.51" fill="#183FE1"/><path d="M 469.2 100.53999999999999 A 33.51 33.51 0 0 0 502.71 67.03 L 469.2 67.03" fill="#183FE1"/><rect x="502.71" y="67.03" width="33.51" height="33.51" fill="#183FE1"/><path d="M 502.71 67.03 A 33.51 33.51 0 0 0 536.22 100.53999999999999 L 536.22 67.03" fill="#183FE1"/><rect x="469.2" y="100.54" width="33.51" height="33.51" fill="#FF3565"/><path d="M 469.2 100.54 A 33.51 33.51 0 0 1 502.71 134.05 L 469.2 134.05" fill="#FF3565"/><rect x="502.71" y="100.54" width="33.51" height="33.51" fill="#183FE1"/><path d="M 502.71 134.05 A 33.51 33.51 0 0 1  536.22 100.54 L 536.22 134.05" fill="#183FE1"/><rect x="536.2285714285715" y="67.02857142857144" width="67.02857142857144" height="67.02857142857144" fill="#ffffff"/><rect x="536.23" y="67.03" width="33.51" height="33.51" fill="#FF3565"/><polygon points="569.74,67.03 569.74,100.53999999999999 536.23,100.53999999999999" fill="#FF3565"/><rect x="569.74" y="67.03" width="33.51" height="33.51" fill="#183FE1"/><polygon points="569.74,67.03 603.25,67.03 569.74,100.53999999999999" fill="#FF3565"/><rect x="536.23" y="100.54" width="33.51" height="33.51" fill="#183FE1"/><polygon points="536.23,100.54 569.74,100.54 569.74,134.05" fill="#183FE1"/><rect x="569.74" y="100.54" width="33.51" height="33.51" fill="#183FE1"/><polygon points="569.74,100.54 603.25,134.05 569.74,134.05" fill="#FF3565"/><rect x="603.26" y="67.03" width="67.03" height="67.03" fill="#FF3565"/><path d="M 603.26 67.03 A 67.03 67.03 0 0 1 670.29 134.06 L 603.26 134.06" fill="#FF3565"/><rect x="670.2857142857144" y="67.02857142857144" width="67.02857142857144" height="67.02857142857144" fill="#ffffff"/><rect x="670.29" y="67.03" width="33.51" height="33.51" fill="#FF3565"/><path d="M 670.29 67.03 A 33.51 33.51 0 0 0 703.8 100.53999999999999 L 703.8 67.03" fill="#FF3565"/><rect x="703.8" y="67.03" width="33.51" height="33.51" fill="#183FE1"/><path d="M 703.8 100.53999999999999 A 33.51 33.51 0 0 0 737.31 67.03 L 703.8 67.03" fill="#FF3565"/><rect x="670.29" y="100.54" width="33.51" height="33.51" fill="#183FE1"/><path d="M 670.29 134.05 A 33.51 33.51 0 0 1  703.8 100.54 L 703.8 134.05" fill="#FF3565"/><rect x="703.8" y="100.54" width="33.51" height="33.51" fill="#FF3565"/><path d="M 703.8 100.54 A 33.51 33.51 0 0 1 737.31 134.05 L 703.8 134.05" fill="#183FE1"/><rect x="737.3142857142858" y="67.02857142857144" width="67.02857142857144" height="67.02857142857144" fill="#ffffff"/><rect x="737.31" y="67.03" width="33.51" height="33.51" fill="#183FE1"/><polygon points="770.8199999999999,67.03 770.8199999999999,100.53999999999999 737.31,100.53999999999999" fill="#FF3565"/><rect x="770.83" y="67.03" width="33.51" height="33.51" fill="#183FE1"/><polygon points="770.83,67.03 804.34,100.53999999999999 770.83,100.53999999999999" fill="#183FE1"/><rect x="737.31" y="100.54" width="33.51" height="33.51" fill="#183FE1"/><polygon points="737.31,100.54 770.8199999999999,100.54 770.8199999999999,134.05" fill="#183FE1"/><rect x="770.83" y="100.54" width="33.51" height="33.51" fill="#FF3565"/><polygon points="770.83,100.54 804.34,100.54 770.83,134.05" fill="#FF3565"/><rect x="804.34" y="67.03" width="67.03" height="67.03" fill="#FF3565"/><polygon points="804.34,67.03 871.37,134.06 804.34,134.06" fill="#183FE1"/><rect x="0" y="134.05714285714288" width="67.02857142857144" height="67.02857142857144" fill="#ffffff"/><rect x="0" y="134.06" width="33.51" height="33.51" fill="#FF3565"/><path d="M 0 167.57 A 33.51 33.51 0 0 0 33.51 134.06 L 0 134.06" fill="#FF3565"/><rect x="33.51" y="134.06" width="33.51" height="33.51" fill="#FF3565"/><path d="M 33.51 134.06 A 33.51 33.51 0 0 0 67.02 167.57 L 67.02 134.06" fill="#183FE1"/><rect x="0" y="167.57" width="33.51" height="33.51" fill="#FF3565"/><path d="M 0 167.57 A 33.51 33.51 0 0 1 33.51 201.07999999999998 L 0 201.07999999999998" fill="#FF3565"/><rect x="33.51" y="167.57" width="33.51" height="33.51" fill="#183FE1"/><path d="M 33.51 201.07999999999998 A 33.51 33.51 0 0 1  67.02 167.57 L 67.02 201.07999999999998" fill="#183FE1"/><rect x="67.02857142857144" y="134.05714285714288" width="67.02857142857144" height="67.02857142857144" fill="#ffffff"/><rect x="67.03" y="134.06" width="33.51" height="33.51" fill="#FF3565"/><polygon points="100.53999999999999,134.06 100.53999999999999,167.57 67.03,167.57" fill="#FF3565"/><rect x="100.54" y="134.06" width="33.51" height="33.51" fill="#FF3565"/><polygon points="100.54,134.06 134.05,167.57 100.54,167.57" fill="#183FE1"/><rect x="67.03" y="167.57" width="33.51" height="33.51" fill="#183FE1"/><polygon points="67.03,167.57 100.53999999999999,167.57 100.53999999999999,201.07999999999998" fill="#183FE1"/><rect x="100.54" y="167.57" width="33.51" height="33.51" fill="#183FE1"/><polygon points="100.54,167.57 134.05,167.57 100.54,201.07999999999998" fill="#183FE1"/><rect x="134.06" y="134.06" width="67.03" height="67.03" fill="#FF3565"/><polygon points="134.06,134.06 201.09,201.09 134.06,201.09" fill="#183FE1"/><rect x="201.09" y="134.06" width="67.03" height="67.03" fill="#183FE1"/><path d="M 201.09 134.06 A 67.03 67.03 0 0 1 268.12 201.09 L 201.09 201.09" fill="#183FE1"/><rect x="268.11" y="134.06" width="67.03" height="67.03" fill="#FF3565"/><polygon points="268.11,134.06 335.14,134.06 268.11,201.09" fill="#FF3565"/><rect x="335.1428571428572" y="134.05714285714288" width="67.02857142857144" height="67.02857142857144" fill="#ffffff"/><rect x="335.14" y="134.06" width="33.51" height="33.51" fill="#FF3565"/><path d="M 335.14 134.06 A 33.51 33.51 0 0 0 368.65 167.57 L 368.65 134.06" fill="#FF3565"/><rect x="368.66" y="134.06" width="33.51" height="33.51" fill="#183FE1"/><path d="M 368.66 167.57 A 33.51 33.51 0 0 0 402.17 134.06 L 368.66 134.06" fill="#183FE1"/><rect x="335.14" y="167.57" width="33.51" height="33.51" fill="#FF3565"/><path d="M 335.14 201.07999999999998 A 33.51 33.51 0 0 1  368.65 167.57 L 368.65 201.07999999999998" fill="#FF3565"/><rect x="368.66" y="167.57" width="33.51" height="33.51" fill="#183FE1"/><path d="M 368.66 167.57 A 33.51 33.51 0 0 1 402.17 201.07999999999998 L 368.66 201.07999999999998" fill="#183FE1"/><rect x="402.17" y="134.06" width="67.03" height="67.03" fill="#183FE1"/><rect x="402.17" y="134.06" width="67.03" height="67.03" fill="#183FE1"/><rect x="469.2" y="134.06" width="67.03" height="67.03" fill="#183FE1"/><path d="M 469.2 134.06 A 67.03 67.03 0 0 1 536.23 201.09 L 469.2 201.09" fill="#183FE1"/><rect x="536.23" y="134.06" width="67.03" height="67.03" fill="#183FE1"/><polygon points="536.23,134.06 603.26,134.06 536.23,201.09" fill="#FF3565"/><rect x="603.26" y="134.06" width="67.03" height="67.03" fill="#FF3565"/><path d="M 603.26 201.09 A 67.03 67.03 0 0 0 670.29 134.06 L 603.26 134.06" fill="#183FE1"/><rect x="670.29" y="134.06" width="67.03" height="67.03" fill="#183FE1"/><polygon points="670.29,134.06 737.3199999999999,134.06 670.29,201.09" fill="#FF3565"/><rect x="737.31" y="134.06" width="67.03" height="67.03" fill="#FF3565"/><rect x="737.31" y="134.06" width="67.03" height="67.03" fill="#183FE1"/><rect x="804.34" y="134.06" width="67.03" height="67.03" fill="#FF3565"/><rect x="804.34" y="134.06" width="67.03" height="67.03" fill="#183FE1"/><rect x="0" y="201.09" width="67.03" height="67.03" fill="#FF3565"/><path d="M 0 268.12 A 67.03 67.03 0 0 1  67.03 201.09 L 67.03 268.12" fill="#FF3565"/><rect x="67.02857142857144" y="201.08571428571432" width="67.02857142857144" height="67.02857142857144" fill="#ffffff"/><rect x="67.03" y="201.09" width="33.51" height="33.51" fill="#FF3565"/><path d="M 67.03 201.09 A 33.51 33.51 0 0 1 100.53999999999999 234.6 L 67.03 234.6" fill="#FF3565"/><rect x="100.54" y="201.09" width="33.51" height="33.51" fill="#183FE1"/><path d="M 100.54 234.6 A 33.51 33.51 0 0 1  134.05 201.09 L 134.05 234.6" fill="#FF3565"/><rect x="67.03" y="234.6" width="33.51" height="33.51" fill="#183FE1"/><path d="M 67.03 268.11 A 33.51 33.51 0 0 0 100.53999999999999 234.6 L 67.03 234.6" fill="#183FE1"/><rect x="100.54" y="234.6" width="33.51" height="33.51" fill="#183FE1"/><path d="M 100.54 234.6 A 33.51 33.51 0 0 0 134.05 268.11 L 134.05 234.6" fill="#183FE1"/><rect x="134.05714285714288" y="201.08571428571432" width="67.02857142857144" height="67.02857142857144" fill="#ffffff"/><rect x="134.06" y="201.09" width="33.51" height="33.51" fill="#183FE1"/><polygon points="167.57,201.09 167.57,234.6 134.06,234.6" fill="#183FE1"/><rect x="167.57" y="201.09" width="33.51" height="33.51" fill="#FF3565"/><polygon points="167.57,201.09 201.07999999999998,201.09 167.57,234.6" fill="#183FE1"/><rect x="134.06" y="234.6" width="33.51" height="33.51" fill="#FF3565"/><polygon points="134.06,234.6 167.57,234.6 167.57,268.11" fill="#183FE1"/><rect x="167.57" y="234.6" width="33.51" height="33.51" fill="#FF3565"/><polygon points="167.57,234.6 201.07999999999998,268.11 167.57,268.11" fill="#FF3565"/><rect x="201.08571428571432" y="201.08571428571432" width="67.02857142857144" height="67.02857142857144" fill="#ffffff"/><rect x="201.09" y="201.09" width="33.51" height="33.51" fill="#183FE1"/><circle cx="217.845" cy="217.845" r="16.755" fill="#183FE1"/><rect x="234.6" y="201.09" width="33.51" height="33.51" fill="#FF3565"/><rect x="234.6" y="201.09" width="33.51" height="33.51" fill="#FF3565"/><rect x="201.09" y="234.6" width="33.51" height="33.51" fill="#FF3565"/><circle cx="217.845" cy="251.355" r="16.755" fill="#183FE1"/><rect x="234.6" y="234.6" width="33.51" height="33.51" fill="#183FE1"/><rect x="234.6" y="234.6" width="33.51" height="33.51" fill="#FF3565"/><rect x="268.11" y="201.09" width="67.03" height="67.03" fill="#183FE1"/><polygon points="268.11,201.09 335.14,268.12 268.11,268.12" fill="#FF3565"/><rect x="335.1428571428572" y="201.08571428571432" width="67.02857142857144" height="67.02857142857144" fill="#ffffff"/><rect x="335.14" y="201.09" width="33.51" height="33.51" fill="#183FE1"/><polygon points="368.65,201.09 368.65,234.6 335.14,234.6" fill="#183FE1"/><rect x="368.66" y="201.09" width="33.51" height="33.51" fill="#183FE1"/><polygon points="368.66,201.09 402.17,201.09 368.66,234.6" fill="#FF3565"/><rect x="335.14" y="234.6" width="33.51" height="33.51" fill="#FF3565"/><polygon points="335.14,234.6 368.65,234.6 368.65,268.11" fill="#FF3565"/><rect x="368.66" y="234.6" width="33.51" height="33.51" fill="#FF3565"/><polygon points="368.66,234.6 402.17,268.11 368.66,268.11" fill="#FF3565"/><rect x="402.17" y="201.09" width="67.03" height="67.03" fill="#FF3565"/><rect x="402.17" y="201.09" width="67.03" height="67.03" fill="#FF3565"/><rect x="469.20000000000005" y="201.08571428571432" width="67.02857142857144" height="67.02857142857144" fill="#ffffff"/><rect x="469.2" y="201.09" width="33.51" height="33.51" fill="#FF3565"/><polygon points="502.71,201.09 502.71,234.6 469.2,234.6" fill="#183FE1"/><rect x="502.71" y="201.09" width="33.51" height="33.51" fill="#FF3565"/><polygon points="502.71,201.09 536.22,234.6 502.71,234.6" fill="#183FE1"/><rect x="469.2" y="234.6" width="33.51" height="33.51" fill="#FF3565"/><polygon points="469.2,234.6 502.71,234.6 469.2,268.11" fill="#183FE1"/><rect x="502.71" y="234.6" width="33.51" height="33.51" fill="#183FE1"/><polygon points="502.71,234.6 536.22,234.6 536.22,268.11" fill="#183FE1"/><rect x="536.2285714285715" y="201.08571428571432" width="67.02857142857144" height="67.02857142857144" fill="#ffffff"/><rect x="536.23" y="201.09" width="33.51" height="33.51" fill="#183FE1"/><path d="M 536.23 201.09 A 33.51 33.51 0 0 0 569.74 234.6 L 569.74 201.09" fill="#183FE1"/><rect x="569.74" y="201.09" width="33.51" height="33.51" fill="#183FE1"/><path d="M 569.74 234.6 A 33.51 33.51 0 0 0 603.25 201.09 L 569.74 201.09" fill="#FF3565"/><rect x="536.23" y="234.6" width="33.51" height="33.51" fill="#FF3565"/><path d="M 536.23 268.11 A 33.51 33.51 0 0 1  569.74 234.6 L 569.74 268.11" fill="#FF3565"/><rect x="569.74" y="234.6" width="33.51" height="33.51" fill="#FF3565"/><path d="M 569.74 234.6 A 33.51 33.51 0 0 1 603.25 268.11 L 569.74 268.11" fill="#183FE1"/><rect x="603.257142857143" y="201.08571428571432" width="67.02857142857144" height="67.02857142857144" fill="#ffffff"/><rect x="603.26" y="201.09" width="33.51" height="33.51" fill="#FF3565"/><polygon points="636.77,201.09 636.77,234.6 603.26,234.6" fill="#FF3565"/><rect x="636.77" y="201.09" width="33.51" height="33.51" fill="#183FE1"/><polygon points="636.77,201.09 670.28,234.6 636.77,234.6" fill="#FF3565"/><rect x="603.26" y="234.6" width="33.51" height="33.51" fill="#183FE1"/><polygon points="603.26,234.6 636.77,234.6 636.77,268.11" fill="#FF3565"/><rect x="636.77" y="234.6" width="33.51" height="33.51" fill="#183FE1"/><polygon points="636.77,234.6 670.28,234.6 636.77,268.11" fill="#183FE1"/><rect x="670.29" y="201.09" width="67.03" height="67.03" fill="#FF3565"/><polygon points="737.3199999999999,201.09 737.3199999999999,268.12 670.29,268.12" fill="#FF3565"/><rect x="737.3142857142858" y="201.08571428571432" width="67.02857142857144" height="67.02857142857144" fill="#ffffff"/><rect x="737.31" y="201.09" width="33.51" height="33.51" fill="#183FE1"/><polygon points="770.8199999999999,201.09 770.8199999999999,234.6 737.31,234.6" fill="#183FE1"/><rect x="770.83" y="201.09" width="33.51" height="33.51" fill="#FF3565"/><polygon points="770.83,201.09 804.34,234.6 770.83,234.6" fill="#FF3565"/><rect x="737.31" y="234.6" width="33.51" height="33.51" fill="#183FE1"/><polygon points="737.31,234.6 770.8199999999999,234.6 737.31,268.11" fill="#FF3565"/><rect x="770.83" y="234.6" width="33.51" height="33.51" fill="#183FE1"/><polygon points="770.83,234.6 804.34,234.6 804.34,268.11" fill="#183FE1"/><rect x="804.34" y="201.09" width="67.03" height="67.03" fill="#FF3565"/><path d="M 804.34 268.12 A 67.03 67.03 0 0 1  871.37 201.09 L 871.37 268.12" fill="#FF3565"/><rect x="0" y="268.11428571428576" width="67.02857142857144" height="67.02857142857144" fill="#ffffff"/><rect x="0" y="268.11" width="33.51" height="33.51" fill="#FF3565"/><polygon points="33.51,268.11 33.51,301.62 0,301.62" fill="#183FE1"/><rect x="33.51" y="268.11" width="33.51" height="33.51" fill="#183FE1"/><polygon points="33.51,268.11 67.02,268.11 33.51,301.62" fill="#183FE1"/><rect x="0" y="301.63" width="33.51" height="33.51" fill="#183FE1"/><polygon points="0,301.63 33.51,301.63 33.51,335.14" fill="#183FE1"/><rect x="33.51" y="301.63" width="33.51" height="33.51" fill="#FF3565"/><polygon points="33.51,301.63 67.02,335.14 33.51,335.14" fill="#FF3565"/><rect x="67.02857142857144" y="268.11428571428576" width="67.02857142857144" height="67.02857142857144" fill="#ffffff"/><rect x="67.03" y="268.11" width="33.51" height="33.51" fill="#183FE1"/><polygon points="100.53999999999999,268.11 100.53999999999999,301.62 67.03,301.62" fill="#FF3565"/><rect x="100.54" y="268.11" width="33.51" height="33.51" fill="#183FE1"/><polygon points="100.54,268.11 134.05,301.62 100.54,301.62" fill="#183FE1"/><rect x="67.03" y="301.63" width="33.51" height="33.51" fill="#FF3565"/><polygon points="67.03,301.63 100.53999999999999,301.63 100.53999999999999,335.14" fill="#183FE1"/><rect x="100.54" y="301.63" width="33.51" height="33.51" fill="#183FE1"/><polygon points="100.54,301.63 134.05,301.63 100.54,335.14" fill="#FF3565"/><rect x="134.05714285714288" y="268.11428571428576" width="67.02857142857144" height="67.02857142857144" fill="#ffffff"/><rect x="134.06" y="268.11" width="33.51" height="33.51" fill="#FF3565"/><polygon points="167.57,268.11 167.57,301.62 134.06,301.62" fill="#183FE1"/><rect x="167.57" y="268.11" width="33.51" height="33.51" fill="#FF3565"/><polygon points="167.57,268.11 201.07999999999998,301.62 167.57,301.62" fill="#FF3565"/><rect x="134.06" y="301.63" width="33.51" height="33.51" fill="#183FE1"/><polygon points="134.06,301.63 167.57,301.63 167.57,335.14" fill="#FF3565"/><rect x="167.57" y="301.63" width="33.51" height="33.51" fill="#183FE1"/><polygon points="167.57,301.63 201.07999999999998,301.63 167.57,335.14" fill="#FF3565"/><rect x="201.08571428571432" y="268.11428571428576" width="67.02857142857144" height="67.02857142857144" fill="#ffffff"/><rect x="201.09" y="268.11" width="33.51" height="33.51" fill="#FF3565"/><polygon points="234.6,268.11 234.6,301.62 201.09,301.62" fill="#183FE1"/><rect x="234.6" y="268.11" width="33.51" height="33.51" fill="#FF3565"/><polygon points="234.6,268.11 268.11,301.62 234.6,301.62" fill="#183FE1"/><rect x="201.09" y="301.63" width="33.51" height="33.51" fill="#183FE1"/><polygon points="201.09,301.63 234.6,301.63 201.09,335.14" fill="#FF3565"/><rect x="234.6" y="301.63" width="33.51" height="33.51" fill="#183FE1"/><polygon points="234.6,301.63 268.11,301.63 268.11,335.14" fill="#FF3565"/><rect x="268.11" y="268.11" width="67.03" height="67.03" fill="#183FE1"/><path d="M 268.11 335.14 A 67.03 67.03 0 0 0 335.14 268.11 L 268.11 268.11" fill="#FF3565"/><rect x="335.14" y="268.11" width="67.03" height="67.03" fill="#183FE1"/><polygon points="402.16999999999996,268.11 402.16999999999996,335.14 335.14,335.14" fill="#183FE1"/><rect x="402.17" y="268.11" width="67.03" height="67.03" fill="#183FE1"/><rect x="402.17" y="268.11" width="67.03" height="67.03" fill="#FF3565"/><rect x="469.2" y="268.11" width="67.03" height="67.03" fill="#FF3565"/><path d="M 469.2 335.14 A 67.03 67.03 0 0 0 536.23 268.11 L 469.2 268.11" fill="#FF3565"/><rect x="536.23" y="268.11" width="67.03" height="67.03" fill="#FF3565"/><polygon points="536.23,268.11 603.26,268.11 536.23,335.14" fill="#183FE1"/><rect x="603.26" y="268.11" width="67.03" height="67.03" fill="#FF3565"/><rect x="603.26" y="268.11" width="67.03" height="67.03" fill="#183FE1"/><rect x="670.29" y="268.11" width="67.03" height="67.03" fill="#183FE1"/><path d="M 670.29 268.11 A 67.03 67.03 0 0 1  737.3199999999999 335.14 L 670.29 268.11 A 67.03 67.03 0 0 0 737.3199999999999 335.14" fill="#FF3565"/><rect x="737.31" y="268.11" width="67.03" height="67.03" fill="#FF3565"/><path d="M 737.31 335.14 A 67.03 67.03 0 0 0 804.3399999999999 268.11 L 737.31 268.11" fill="#183FE1"/><rect x="804.3428571428573" y="268.11428571428576" width="67.02857142857144" height="67.02857142857144" fill="#ffffff"/><rect x="804.34" y="268.11" width="33.51" height="33.51" fill="#183FE1"/><polygon points="837.85,268.11 837.85,301.62 804.34,301.62" fill="#FF3565"/><rect x="837.86" y="268.11" width="33.51" height="33.51" fill="#FF3565"/><polygon points="837.86,268.11 871.37,268.11 837.86,301.62" fill="#183FE1"/><rect x="804.34" y="301.63" width="33.51" height="33.51" fill="#FF3565"/><polygon points="804.34,301.63 837.85,301.63 837.85,335.14" fill="#FF3565"/><rect x="837.86" y="301.63" width="33.51" height="33.51" fill="#FF3565"/><polygon points="837.86,301.63 871.37,335.14 837.86,335.14" fill="#183FE1"/><rect x="0" y="335.1428571428572" width="67.02857142857144" height="67.02857142857144" fill="#ffffff"/><rect x="0" y="335.14" width="33.51" height="33.51" fill="#183FE1"/><circle cx="16.755" cy="351.895" r="16.755" fill="#FF3565"/><rect x="33.51" y="335.14" width="33.51" height="33.51" fill="#183FE1"/><rect x="33.51" y="335.14" width="33.51" height="33.51" fill="#183FE1"/><rect x="0" y="368.66" width="33.51" height="33.51" fill="#183FE1"/><circle cx="16.755" cy="385.415" r="16.755" fill="#FF3565"/><rect x="33.51" y="368.66" width="33.51" height="33.51" fill="#FF3565"/><rect x="33.51" y="368.66" width="33.51" height="33.51" fill="#FF3565"/><rect x="67.02857142857144" y="335.1428571428572" width="67.02857142857144" height="67.02857142857144" fill="#ffffff"/><rect x="67.03" y="335.14" width="33.51" height="33.51" fill="#FF3565"/><path d="M 67.03 335.14 A 33.51 33.51 0 0 1 100.53999999999999 368.65 L 67.03 368.65" fill="#183FE1"/><rect x="100.54" y="335.14" width="33.51" height="33.51" fill="#183FE1"/><path d="M 100.54 368.65 A 33.51 33.51 0 0 1  134.05 335.14 L 134.05 368.65" fill="#183FE1"/><rect x="67.03" y="368.66" width="33.51" height="33.51" fill="#183FE1"/><path d="M 67.03 402.17 A 33.51 33.51 0 0 0 100.53999999999999 368.66 L 67.03 368.66" fill="#183FE1"/><rect x="100.54" y="368.66" width="33.51" height="33.51" fill="#FF3565"/><path d="M 100.54 368.66 A 33.51 33.51 0 0 0 134.05 402.17 L 134.05 368.66" fill="#183FE1"/><rect x="134.05714285714288" y="335.1428571428572" width="67.02857142857144" height="67.02857142857144" fill="#ffffff"/><rect x="134.06" y="335.14" width="33.51" height="33.51" fill="#183FE1"/><path d="M 134.06 335.14 A 33.51 33.51 0 0 1 167.57 368.65 L 134.06 368.65" fill="#183FE1"/><rect x="167.57" y="335.14" width="33.51" height="33.51" fill="#183FE1"/><path d="M 167.57 368.65 A 33.51 33.51 0 0 1  201.07999999999998 335.14 L 201.07999999999998 368.65" fill="#183FE1"/><rect x="134.06" y="368.66" width="33.51" height="33.51" fill="#FF3565"/><path d="M 134.06 402.17 A 33.51 33.51 0 0 0 167.57 368.66 L 134.06 368.66" fill="#FF3565"/><rect x="167.57" y="368.66" width="33.51" height="33.51" fill="#183FE1"/><path d="M 167.57 368.66 A 33.51 33.51 0 0 0 201.07999999999998 402.17 L 201.07999999999998 368.66" fill="#FF3565"/><rect x="201.08571428571432" y="335.1428571428572" width="67.02857142857144" height="67.02857142857144" fill="#ffffff"/><rect x="201.09" y="335.14" width="33.51" height="33.51" fill="#183FE1"/><path d="M 201.09 368.65 A 33.51 33.51 0 0 0 234.6 335.14 L 201.09 335.14" fill="#183FE1"/><rect x="234.6" y="335.14" width="33.51" height="33.51" fill="#183FE1"/><path d="M 234.6 335.14 A 33.51 33.51 0 0 0 268.11 368.65 L 268.11 335.14" fill="#183FE1"/><rect x="201.09" y="368.66" width="33.51" height="33.51" fill="#FF3565"/><path d="M 201.09 368.66 A 33.51 33.51 0 0 1 234.6 402.17 L 201.09 402.17" fill="#183FE1"/><rect x="234.6" y="368.66" width="33.51" height="33.51" fill="#183FE1"/><path d="M 234.6 402.17 A 33.51 33.51 0 0 1  268.11 368.66 L 268.11 402.17" fill="#FF3565"/><rect x="268.11" y="335.14" width="67.03" height="67.03" fill="#FF3565"/><path d="M 268.11 335.14 A 67.03 67.03 0 0 0 335.14 402.16999999999996 L 335.14 335.14" fill="#183FE1"/><rect x="335.1428571428572" y="335.1428571428572" width="67.02857142857144" height="67.02857142857144" fill="#ffffff"/><rect x="335.14" y="335.14" width="33.51" height="33.51" fill="#183FE1"/><path d="M 335.14 335.14 A 33.51 33.51 0 0 0 368.65 368.65 L 368.65 335.14" fill="#183FE1"/><rect x="368.66" y="335.14" width="33.51" height="33.51" fill="#183FE1"/><path d="M 368.66 368.65 A 33.51 33.51 0 0 0 402.17 335.14 L 368.66 335.14" fill="#FF3565"/><rect x="335.14" y="368.66" width="33.51" height="33.51" fill="#183FE1"/><path d="M 335.14 402.17 A 33.51 33.51 0 0 1  368.65 368.66 L 368.65 402.17" fill="#183FE1"/><rect x="368.66" y="368.66" width="33.51" height="33.51" fill="#183FE1"/><path d="M 368.66 368.66 A 33.51 33.51 0 0 1 402.17 402.17 L 368.66 402.17" fill="#183FE1"/><rect x="402.17" y="335.14" width="67.03" height="67.03" fill="#183FE1"/><rect x="402.17" y="335.14" width="67.03" height="67.03" fill="#FF3565"/><rect x="469.20000000000005" y="335.1428571428572" width="67.02857142857144" height="67.02857142857144" fill="#ffffff"/><rect x="469.2" y="335.14" width="33.51" height="33.51" fill="#183FE1"/><polygon points="502.71,335.14 502.71,368.65 469.2,368.65" fill="#FF3565"/><rect x="502.71" y="335.14" width="33.51" height="33.51" fill="#183FE1"/><polygon points="502.71,335.14 536.22,368.65 502.71,368.65" fill="#FF3565"/><rect x="469.2" y="368.66" width="33.51" height="33.51" fill="#183FE1"/><polygon points="469.2,368.66 502.71,368.66 469.2,402.17" fill="#FF3565"/><rect x="502.71" y="368.66" width="33.51" height="33.51" fill="#FF3565"/><polygon points="502.71,368.66 536.22,368.66 536.22,402.17" fill="#FF3565"/><rect x="536.2285714285715" y="335.1428571428572" width="67.02857142857144" height="67.02857142857144" fill="#ffffff"/><rect x="536.23" y="335.14" width="33.51" height="33.51" fill="#FF3565"/><circle cx="552.985" cy="351.895" r="16.755" fill="#183FE1"/><rect x="569.74" y="335.14" width="33.51" height="33.51" fill="#FF3565"/><rect x="569.74" y="335.14" width="33.51" height="33.51" fill="#183FE1"/><rect x="536.23" y="368.66" width="33.51" height="33.51" fill="#183FE1"/><circle cx="552.985" cy="385.415" r="16.755" fill="#FF3565"/><rect x="569.74" y="368.66" width="33.51" height="33.51" fill="#FF3565"/><rect x="569.74" y="368.66" width="33.51" height="33.51" fill="#FF3565"/><rect x="603.26" y="335.14" width="67.03" height="67.03" fill="#183FE1"/><polygon points="603.26,335.14 670.29,335.14 603.26,402.16999999999996" fill="#FF3565"/><rect x="670.2857142857144" y="335.1428571428572" width="67.02857142857144" height="67.02857142857144" fill="#ffffff"/><rect x="670.29" y="335.14" width="33.51" height="33.51" fill="#183FE1"/><polygon points="703.8,335.14 703.8,368.65 670.29,368.65" fill="#FF3565"/><rect x="703.8" y="335.14" width="33.51" height="33.51" fill="#183FE1"/><polygon points="703.8,335.14 737.31,335.14 703.8,368.65" fill="#FF3565"/><rect x="670.29" y="368.66" width="33.51" height="33.51" fill="#FF3565"/><polygon points="670.29,368.66 703.8,368.66 703.8,402.17" fill="#183FE1"/><rect x="703.8" y="368.66" width="33.51" height="33.51" fill="#FF3565"/><polygon points="703.8,368.66 737.31,402.17 703.8,402.17" fill="#FF3565"/><rect x="737.3142857142858" y="335.1428571428572" width="67.02857142857144" height="67.02857142857144" fill="#ffffff"/><rect x="737.31" y="335.14" width="33.51" height="33.51" fill="#183FE1"/><path d="M 737.31 335.14 A 33.51 33.51 0 0 0 770.8199999999999 368.65 L 770.8199999999999 335.14" fill="#FF3565"/><rect x="770.83" y="335.14" width="33.51" height="33.51" fill="#FF3565"/><path d="M 770.83 368.65 A 33.51 33.51 0 0 0 804.34 335.14 L 770.83 335.14" fill="#183FE1"/><rect x="737.31" y="368.66" width="33.51" height="33.51" fill="#183FE1"/><path d="M 737.31 402.17 A 33.51 33.51 0 0 1  770.8199999999999 368.66 L 770.8199999999999 402.17" fill="#183FE1"/><rect x="770.83" y="368.66" width="33.51" height="33.51" fill="#183FE1"/><path d="M 770.83 368.66 A 33.51 33.51 0 0 1 804.34 402.17 L 770.83 402.17" fill="#FF3565"/><rect x="804.34" y="335.14" width="67.03" height="67.03" fill="#183FE1"/><polygon points="804.34,335.14 871.37,335.14 871.37,402.16999999999996" fill="#183FE1"/><rect x="0" y="402.17142857142863" width="67.02857142857144" height="67.02857142857144" fill="#ffffff"/><rect x="0" y="402.17" width="33.51" height="33.51" fill="#183FE1"/><circle cx="16.755" cy="418.925" r="16.755" fill="#FF3565"/><rect x="33.51" y="402.17" width="33.51" height="33.51" fill="#183FE1"/><rect x="33.51" y="402.17" width="33.51" height="33.51" fill="#183FE1"/><rect x="0" y="435.69" width="33.51" height="33.51" fill="#183FE1"/><circle cx="16.755" cy="452.445" r="16.755" fill="#FF3565"/><rect x="33.51" y="435.69" width="33.51" height="33.51" fill="#183FE1"/><rect x="33.51" y="435.69" width="33.51" height="33.51" fill="#183FE1"/><rect x="67.02857142857144" y="402.17142857142863" width="67.02857142857144" height="67.02857142857144" fill="#ffffff"/><rect x="67.03" y="402.17" width="33.51" height="33.51" fill="#FF3565"/><polygon points="100.53999999999999,402.17 100.53999999999999,435.68 67.03,435.68" fill="#183FE1"/><rect x="100.54" y="402.17" width="33.51" height="33.51" fill="#183FE1"/><polygon points="100.54,402.17 134.05,435.68 100.54,435.68" fill="#183FE1"/><rect x="67.03" y="435.69" width="33.51" height="33.51" fill="#183FE1"/><polygon points="67.03,435.69 100.53999999999999,435.69 67.03,469.2" fill="#183FE1"/><rect x="100.54" y="435.69" width="33.51" height="33.51" fill="#183FE1"/><polygon points="100.54,435.69 134.05,435.69 134.05,469.2" fill="#FF3565"/><rect x="134.06" y="402.17" width="67.03" height="67.03" fill="#FF3565"/><polygon points="201.09,402.17 201.09,469.20000000000005 134.06,469.20000000000005" fill="#183FE1"/><rect x="201.09" y="402.17" width="67.03" height="67.03" fill="#FF3565"/><path d="M 201.09 469.20000000000005 A 67.03 67.03 0 0 1  268.12 402.17 L 268.12 469.20000000000005" fill="#183FE1"/><rect x="268.11428571428576" y="402.17142857142863" width="67.02857142857144" height="67.02857142857144" fill="#ffffff"/><rect x="268.11" y="402.17" width="33.51" height="33.51" fill="#FF3565"/><path d="M 268.11 435.68 A 33.51 33.51 0 0 0 301.62 402.17 L 268.11 402.17" fill="#FF3565"/><rect x="301.63" y="402.17" width="33.51" height="33.51" fill="#FF3565"/><path d="M 301.63 402.17 A 33.51 33.51 0 0 0 335.14 435.68 L 335.14 402.17" fill="#FF3565"/><rect x="268.11" y="435.69" width="33.51" height="33.51" fill="#183FE1"/><path d="M 268.11 435.69 A 33.51 33.51 0 0 1 301.62 469.2 L 268.11 469.2" fill="#183FE1"/><rect x="301.63" y="435.69" width="33.51" height="33.51" fill="#FF3565"/><path d="M 301.63 469.2 A 33.51 33.51 0 0 1  335.14 435.69 L 335.14 469.2" fill="#183FE1"/><rect x="335.14" y="402.17" width="67.03" height="67.03" fill="#FF3565"/><rect x="335.14" y="402.17" width="67.03" height="67.03" fill="#183FE1"/><rect x="402.17" y="402.17" width="67.03" height="67.03" fill="#FF3565"/><path d="M 402.17 402.17 A 67.03 67.03 0 0 1  469.20000000000005 469.20000000000005 L 402.17 402.17 A 67.03 67.03 0 0 0 469.20000000000005 469.20000000000005" fill="#FF3565"/><rect x="469.20000000000005" y="402.17142857142863" width="67.02857142857144" height="67.02857142857144" fill="#ffffff"/><rect x="469.2" y="402.17" width="33.51" height="33.51" fill="#183FE1"/><polygon points="502.71,402.17 502.71,435.68 469.2,435.68" fill="#FF3565"/><rect x="502.71" y="402.17" width="33.51" height="33.51" fill="#183FE1"/><polygon points="502.71,402.17 536.22,402.17 502.71,435.68" fill="#FF3565"/><rect x="469.2" y="435.69" width="33.51" height="33.51" fill="#FF3565"/><polygon points="469.2,435.69 502.71,435.69 502.71,469.2" fill="#FF3565"/><rect x="502.71" y="435.69" width="33.51" height="33.51" fill="#183FE1"/><polygon points="502.71,435.69 536.22,469.2 502.71,469.2" fill="#FF3565"/><rect x="536.2285714285715" y="402.17142857142863" width="67.02857142857144" height="67.02857142857144" fill="#ffffff"/><rect x="536.23" y="402.17" width="33.51" height="33.51" fill="#FF3565"/><path d="M 536.23 402.17 A 33.51 33.51 0 0 0 569.74 435.68 L 569.74 402.17" fill="#183FE1"/><rect x="569.74" y="402.17" width="33.51" height="33.51" fill="#FF3565"/><path d="M 569.74 435.68 A 33.51 33.51 0 0 0 603.25 402.17 L 569.74 402.17" fill="#FF3565"/><rect x="536.23" y="435.69" width="33.51" height="33.51" fill="#183FE1"/><path d="M 536.23 469.2 A 33.51 33.51 0 0 1  569.74 435.69 L 569.74 469.2" fill="#183FE1"/><rect x="569.74" y="435.69" width="33.51" height="33.51" fill="#FF3565"/><path d="M 569.74 435.69 A 33.51 33.51 0 0 1 603.25 469.2 L 569.74 469.2" fill="#FF3565"/><rect x="603.26" y="402.17" width="67.03" height="67.03" fill="#183FE1"/><rect x="603.26" y="402.17" width="67.03" height="67.03" fill="#FF3565"/><rect x="670.29" y="402.17" width="67.03" height="67.03" fill="#FF3565"/><path d="M 670.29 469.20000000000005 A 67.03 67.03 0 0 0 737.3199999999999 402.17 L 670.29 402.17" fill="#FF3565"/><rect x="737.31" y="402.17" width="67.03" height="67.03" fill="#FF3565"/><path d="M 737.31 469.20000000000005 A 67.03 67.03 0 0 1  804.3399999999999 402.17 L 804.3399999999999 469.20000000000005" fill="#FF3565"/><rect x="804.34" y="402.17" width="67.03" height="67.03" fill="#FF3565"/><polygon points="804.34,402.17 871.37,402.17 804.34,469.20000000000005" fill="#FF3565"/></g></svg>